<svg width="36" height="36" viewBox="0 0 36 36" fill="none" xmlns="http://www.w3.org/2000/svg">
<g clip-path="url(#clip0)">
<path d="M14.3832 25.8499V25.3499H13.8832H1.74087C1.05546 25.3499 0.5 24.7944 0.5 24.109V3.74087C0.5 3.05551 1.05546 2.5 1.74087 2.5H34.2077C34.8931 2.5 35.4486 3.05551 35.4486 3.74087V24.109C35.4486 24.7944 34.8931 25.3499 34.2077 25.3499H22.0653H21.5653V25.8499V29.7947V30.2947H22.0653H26.7903C27.4021 30.2947 27.9006 30.7932 27.9006 31.405C27.9006 32.0168 27.4021 32.5153 26.7903 32.5153H9.15827C8.54648 32.5153 8.04796 32.0168 8.04796 31.405C8.04796 30.7932 8.54648 30.2947 9.15827 30.2947H13.8832H14.3832V29.7947V25.8499ZM33.3373 23.7386H33.8373V23.2386V4.6113V4.1113H33.3373H2.6113H2.1113V4.6113V23.2386V23.7386H2.6113H33.3373Z" fill="#515151"/>
<path d="M14.3832 25.8499V25.3499H13.8832H1.74087C1.05546 25.3499 0.5 24.7944 0.5 24.109V3.74087C0.5 3.05551 1.05546 2.5 1.74087 2.5H34.2077C34.8931 2.5 35.4486 3.05551 35.4486 3.74087V24.109C35.4486 24.7944 34.8931 25.3499 34.2077 25.3499H22.0653H21.5653V25.8499V29.7947V30.2947H22.0653H26.7903C27.4021 30.2947 27.9006 30.7932 27.9006 31.405C27.9006 32.0168 27.4021 32.5153 26.7903 32.5153H9.15827C8.54648 32.5153 8.04796 32.0168 8.04796 31.405C8.04796 30.7932 8.54648 30.2947 9.15827 30.2947H13.8832H14.3832V29.7947V25.8499ZM33.3373 23.7386H33.8373V23.2386V4.6113V4.1113H33.3373H2.6113H2.1113V4.6113V23.2386V23.7386H2.6113H33.3373Z" stroke="black"/>
<path d="M14.3832 25.8499V25.3499H13.8832H1.74087C1.05546 25.3499 0.5 24.7944 0.5 24.109V3.74087C0.5 3.05551 1.05546 2.5 1.74087 2.5H34.2077C34.8931 2.5 35.4486 3.05551 35.4486 3.74087V24.109C35.4486 24.7944 34.8931 25.3499 34.2077 25.3499H22.0653H21.5653V25.8499V29.7947V30.2947H22.0653H26.7903C27.4021 30.2947 27.9006 30.7932 27.9006 31.405C27.9006 32.0168 27.4021 32.5153 26.7903 32.5153H9.15827C8.54648 32.5153 8.04796 32.0168 8.04796 31.405C8.04796 30.7932 8.54648 30.2947 9.15827 30.2947H13.8832H14.3832V29.7947V25.8499ZM33.3373 23.7386H33.8373V23.2386V4.6113V4.1113H33.3373H2.6113H2.1113V4.6113V23.2386V23.7386H2.6113H33.3373Z" stroke="url(#paint0_linear)"/>
<path d="M8.44478 14.4553C8.44485 14.4553 8.44491 14.4553 8.44498 14.4554L13.9346 17.0082C13.9347 17.0082 13.9348 17.0083 13.9349 17.0083C14.0111 17.0436 14.0905 17.061 14.1739 17.061C14.2818 17.061 14.3869 17.0306 14.4793 16.9719C14.6444 16.8663 14.7413 16.6889 14.7413 16.4939V16.4659C14.7413 16.2471 14.6119 16.044 14.413 15.9515C14.4129 15.9515 14.4129 15.9515 14.4129 15.9515L10.9787 14.356L10.0027 13.9026L10.9786 13.4491L14.4129 11.8533C14.6118 11.7608 14.7413 11.5577 14.7413 11.339V11.3112C14.7413 11.1154 14.644 10.9382 14.4795 10.8333L14.4789 10.833C14.3898 10.776 14.2846 10.7449 14.1732 10.7449C14.0903 10.7449 14.0069 10.7635 13.9349 10.7969L8.44478 14.4553ZM8.44478 14.4553C8.24512 14.362 8.11617 14.1586 8.11621 13.9409V13.9408V13.8644C8.11621 13.6457 8.24554 13.4426 8.44426 13.3501C8.44431 13.35 8.44436 13.35 8.44441 13.35L13.9347 10.797L8.44478 14.4553Z" fill="#515151"/>
<path d="M8.44478 14.4553C8.44485 14.4553 8.44491 14.4553 8.44498 14.4554L13.9346 17.0082C13.9347 17.0082 13.9348 17.0083 13.9349 17.0083C14.0111 17.0436 14.0905 17.061 14.1739 17.061C14.2818 17.061 14.3869 17.0306 14.4793 16.9719C14.6444 16.8663 14.7413 16.6889 14.7413 16.4939V16.4659C14.7413 16.2471 14.6119 16.044 14.413 15.9515C14.4129 15.9515 14.4129 15.9515 14.4129 15.9515L10.9787 14.356L10.0027 13.9026L10.9786 13.4491L14.4129 11.8533C14.6118 11.7608 14.7413 11.5577 14.7413 11.339V11.3112C14.7413 11.1154 14.644 10.9382 14.4795 10.8333L14.4789 10.833C14.3898 10.776 14.2846 10.7449 14.1732 10.7449C14.0903 10.7449 14.0069 10.7635 13.9349 10.7969L8.44478 14.4553ZM8.44478 14.4553C8.24512 14.362 8.11617 14.1586 8.11621 13.9409V13.9408V13.8644C8.11621 13.6457 8.24554 13.4426 8.44426 13.3501C8.44431 13.35 8.44436 13.35 8.44441 13.35L13.9347 10.797L8.44478 14.4553Z" stroke="black"/>
<path d="M8.44478 14.4553C8.44485 14.4553 8.44491 14.4553 8.44498 14.4554L13.9346 17.0082C13.9347 17.0082 13.9348 17.0083 13.9349 17.0083C14.0111 17.0436 14.0905 17.061 14.1739 17.061C14.2818 17.061 14.3869 17.0306 14.4793 16.9719C14.6444 16.8663 14.7413 16.6889 14.7413 16.4939V16.4659C14.7413 16.2471 14.6119 16.044 14.413 15.9515C14.4129 15.9515 14.4129 15.9515 14.4129 15.9515L10.9787 14.356L10.0027 13.9026L10.9786 13.4491L14.4129 11.8533C14.6118 11.7608 14.7413 11.5577 14.7413 11.339V11.3112C14.7413 11.1154 14.644 10.9382 14.4795 10.8333L14.4789 10.833C14.3898 10.776 14.2846 10.7449 14.1732 10.7449C14.0903 10.7449 14.0069 10.7635 13.9349 10.7969L8.44478 14.4553ZM8.44478 14.4553C8.24512 14.362 8.11617 14.1586 8.11621 13.9409V13.9408V13.8644C8.11621 13.6457 8.24554 13.4426 8.44426 13.3501C8.44431 13.35 8.44436 13.35 8.44441 13.35L13.9347 10.797L8.44478 14.4553Z" stroke="url(#paint1_linear)"/>
<path d="M16.7196 19.6524L16.7192 19.6534C16.6436 19.8895 16.4278 20.0472 16.1794 20.0472H16.152C15.9723 20.0472 15.8002 19.9598 15.694 19.8146C15.5883 19.6698 15.557 19.4794 15.6113 19.3074C15.6114 19.3071 15.6115 19.3068 15.6116 19.3065L19.2286 8.10003L19.2289 8.09903C19.3045 7.86312 19.5205 7.70519 19.7693 7.70519H19.7967C19.9762 7.70519 20.1483 7.7925 20.2546 7.9377C20.3607 8.08336 20.3914 8.27391 20.3367 8.44512C20.3366 8.44526 20.3366 8.4454 20.3365 8.44555L16.7196 19.6524Z" fill="#515151"/>
<path d="M16.7196 19.6524L16.7192 19.6534C16.6436 19.8895 16.4278 20.0472 16.1794 20.0472H16.152C15.9723 20.0472 15.8002 19.9598 15.694 19.8146C15.5883 19.6698 15.557 19.4794 15.6113 19.3074C15.6114 19.3071 15.6115 19.3068 15.6116 19.3065L19.2286 8.10003L19.2289 8.09903C19.3045 7.86312 19.5205 7.70519 19.7693 7.70519H19.7967C19.9762 7.70519 20.1483 7.7925 20.2546 7.9377C20.3607 8.08336 20.3914 8.27391 20.3367 8.44512C20.3366 8.44526 20.3366 8.4454 20.3365 8.44555L16.7196 19.6524Z" stroke="black"/>
<path d="M16.7196 19.6524L16.7192 19.6534C16.6436 19.8895 16.4278 20.0472 16.1794 20.0472H16.152C15.9723 20.0472 15.8002 19.9598 15.694 19.8146C15.5883 19.6698 15.557 19.4794 15.6113 19.3074C15.6114 19.3071 15.6115 19.3068 15.6116 19.3065L19.2286 8.10003L19.2289 8.09903C19.3045 7.86312 19.5205 7.70519 19.7693 7.70519H19.7967C19.9762 7.70519 20.1483 7.7925 20.2546 7.9377C20.3607 8.08336 20.3914 8.27391 20.3367 8.44512C20.3366 8.44526 20.3366 8.4454 20.3365 8.44555L16.7196 19.6524Z" stroke="url(#paint2_linear)"/>
<path d="M24.9698 14.3559L25.9458 13.9025L24.9698 13.449L21.5362 11.8539C21.5361 11.8538 21.536 11.8538 21.5359 11.8537C21.3363 11.7605 21.2072 11.5571 21.2072 11.3389V11.311C21.2072 11.1154 21.3044 10.9382 21.4697 10.8329L21.4699 10.8327C21.559 10.7759 21.6645 10.7447 21.7759 10.7447C21.8588 10.7447 21.9419 10.7633 22.0137 10.7967L27.5041 13.3499C27.7031 13.4424 27.8324 13.6455 27.8324 13.8642V13.9406C27.8324 14.1586 27.7033 14.3619 27.5043 14.4548C27.5042 14.4549 27.5041 14.4549 27.504 14.455L22.0148 17.0077C22.0146 17.0077 22.0145 17.0078 22.0143 17.0079C21.9367 17.0437 21.8574 17.0609 21.7747 17.0609C21.6662 17.0609 21.561 17.0303 21.4695 16.972C21.3041 16.8663 21.2072 16.6889 21.2072 16.4938V16.4658C21.2072 16.247 21.3366 16.044 21.5355 15.9514C21.5355 15.9514 21.5355 15.9514 21.5356 15.9514L24.9698 14.3559Z" fill="#515151"/>
<path d="M24.9698 14.3559L25.9458 13.9025L24.9698 13.449L21.5362 11.8539C21.5361 11.8538 21.536 11.8538 21.5359 11.8537C21.3363 11.7605 21.2072 11.5571 21.2072 11.3389V11.311C21.2072 11.1154 21.3044 10.9382 21.4697 10.8329L21.4699 10.8327C21.559 10.7759 21.6645 10.7447 21.7759 10.7447C21.8588 10.7447 21.9419 10.7633 22.0137 10.7967L27.5041 13.3499C27.7031 13.4424 27.8324 13.6455 27.8324 13.8642V13.9406C27.8324 14.1586 27.7033 14.3619 27.5043 14.4548C27.5042 14.4549 27.5041 14.4549 27.504 14.455L22.0148 17.0077C22.0146 17.0077 22.0145 17.0078 22.0143 17.0079C21.9367 17.0437 21.8574 17.0609 21.7747 17.0609C21.6662 17.0609 21.561 17.0303 21.4695 16.972C21.3041 16.8663 21.2072 16.6889 21.2072 16.4938V16.4658C21.2072 16.247 21.3366 16.044 21.5355 15.9514C21.5355 15.9514 21.5355 15.9514 21.5356 15.9514L24.9698 14.3559Z" stroke="black"/>
<path d="M24.9698 14.3559L25.9458 13.9025L24.9698 13.449L21.5362 11.8539C21.5361 11.8538 21.536 11.8538 21.5359 11.8537C21.3363 11.7605 21.2072 11.5571 21.2072 11.3389V11.311C21.2072 11.1154 21.3044 10.9382 21.4697 10.8329L21.4699 10.8327C21.559 10.7759 21.6645 10.7447 21.7759 10.7447C21.8588 10.7447 21.9419 10.7633 22.0137 10.7967L27.5041 13.3499C27.7031 13.4424 27.8324 13.6455 27.8324 13.8642V13.9406C27.8324 14.1586 27.7033 14.3619 27.5043 14.4548C27.5042 14.4549 27.5041 14.4549 27.504 14.455L22.0148 17.0077C22.0146 17.0077 22.0145 17.0078 22.0143 17.0079C21.9367 17.0437 21.8574 17.0609 21.7747 17.0609C21.6662 17.0609 21.561 17.0303 21.4695 16.972C21.3041 16.8663 21.2072 16.6889 21.2072 16.4938V16.4658C21.2072 16.247 21.3366 16.044 21.5355 15.9514C21.5355 15.9514 21.5355 15.9514 21.5356 15.9514L24.9698 14.3559Z" stroke="url(#paint3_linear)"/>
</g>
<defs>
<linearGradient id="paint0_linear" x1="17.9743" y1="2" x2="17.9743" y2="33.0153" gradientUnits="userSpaceOnUse">
<stop stop-color="white"/>
<stop offset="1" stop-color="white" stop-opacity="0"/>
</linearGradient>
<linearGradient id="paint1_linear" x1="11.4288" y1="10.2449" x2="11.4288" y2="17.561" gradientUnits="userSpaceOnUse">
<stop stop-color="white"/>
<stop offset="1" stop-color="white" stop-opacity="0"/>
</linearGradient>
<linearGradient id="paint2_linear" x1="17.9742" y1="7.20519" x2="17.9742" y2="20.5472" gradientUnits="userSpaceOnUse">
<stop stop-color="white"/>
<stop offset="1" stop-color="white" stop-opacity="0"/>
</linearGradient>
<linearGradient id="paint3_linear" x1="24.5198" y1="10.2447" x2="24.5198" y2="17.5609" gradientUnits="userSpaceOnUse">
<stop stop-color="white"/>
<stop offset="1" stop-color="white" stop-opacity="0"/>
</linearGradient>
<clipPath id="clip0">
<rect width="35.9486" height="35.9486" fill="white"/>
</clipPath>
</defs>
</svg>
